PathFileType	3	(X/Y/Z)	D:\minhoCalibration\240510\subject2_KPNP\preferred\preferred19.trc
DataRate	CameraRate	NumFrames	NumMarkers	Units	OrigDataRate	OrigDataStartFrame	OrigNumFrames
200.0	200.0	27	10	mm	200.0	271	191	
Frame#	Time	Left_Ankle_Outer1			Left_Ankle_Inner1			Left_Knee_Outer1			Left_Knee_Inner1			Left_Wrist1			Right_Wrist1			Right_Knee_Inner1			Right_Knee_Outer1			Right_Ankle_Inner1			Right_Ankle_Outer1			
		X1	Y1	Z1	X2	Y2	Z2	X3	Y3	Z3	X4	Y4	Z4	X5	Y5	Z5	X6	Y6	Z6	X7	Y7	Z7	X8	Y8	Z8	X9	Y9	Z9	X10	Y10	Z10	
271	1.345	-718.29382	97.572166	-626.00128	-726.68481	107.69453	-569.15778	-531.94019	506.9697	-681.02441	-563.65393	499.45419	-587.99335	-554.94208	975.96387	-790.14764	-726.10303	1104.4203	-511.73587	-774.1936	751.68945	-150.51117	-834.20605	837.15875	-154.87563	-955.1059	649.87677	-522.77887	-1026.0424	721.31323	-508.64828
272	1.35	-718.97693	98.796387	-622.70673	-726.53656	107.29894	-570.09546	-529.92676	506.73224	-684.09729	-558.10248	499.21259	-589.62238	-560.88	974.45514	-793.57916	-718.79785	1108.8694	-509.63437	-750.49219	766.68213	-137.76178	-808.68475	854.23822	-139.8396	-953.58112	666.58862	-498.45493	-1021.3417	740.18994	-481.69626
273	1.355	-719.53662	100.11007	-619.20343	-724.98767	110.4017	-563.60486	-527.55432	506.19431	-687.28162	-551.69519	498.46402	-591.3963	-567.26776	972.89642	-796.17328	-711.97382	1113.3627	-508.02682	-725.98419	782.46356	-126.45007	-781.82947	872.60999	-124.89012	-952.22687	682.77509	-473.50854	-1015.5668	758.61243	-453.29068
274	1.36	-719.87097	101.45283	-615.19556	-723.92542	111.35976	-562.03046	-524.94	505.52444	-690.5094	-545.0368	497.56573	-593.49249	-574.07642	970.97424	-798.62616	-704.86194	1117.2383	-507.16733	-700.96198	797.92322	-116.24047	-753.99139	890.31995	-112.59908	-949.76013	699.14435	-447.27008	-1009.9692	776.88867	-424.81595
275	1.365	-719.96918	103.32309	-611.52417	-721.91638	114.77979	-555.76605	-521.92072	505.31863	-694.11517	-538.01617	496.60608	-595.93695	-581.08429	968.94928	-800.29401	-698.90375	1121.3408	-505.84723	-674.99994	813.71057	-108.46554	-724.99402	906.27167	-105.51529	-948.25	713.89423	-420.00586	-1004.2642	794.50836	-395.7442
276	1.37	-719.80994	105.34608	-608.00574	-719.44232	117.77043	-550.93256	-519.81	504.68402	-697.50226	-530.90002	495.67081	-598.83789	-588.19476	966.93469	-801.78625	-692.50623	1125.3281	-505.28418	-649.08795	828.94696	-101.73026	-695.67731	923.70764	-97.491966	-945.9292	729.21356	-390.80847	-997.60297	812.1225	-364.94064
277	1.375	-719.55756	107.67873	-604.97638	-717.20233	119.9803	-547.47083	-518.17859	504.3118	-700.55334	-523.8526	494.84329	-602.26257	-595.68079	964.69702	-802.58374	-687.31537	1128.9562	-504.81772	-622.76074	844.25238	-97.582268	-665.90887	940.03729	-93.040604	-943.20233	744.19354	-360.40454	-990.0694	829.53302	-333.26419
278	1.38	-718.76562	109.26022	-601.69257	-714.93695	122.26643	-544.77808	-517.27844	504.09979	-703.32037	-517.2301	494.24152	-606.07257	-603.375	962.13763	-802.70135	-681.5271	1132.5808	-504.47821	-596.6983	858.82111	-94.659637	-636.13586	955.82129	-90.926865	-939.66162	757.84204	-328.28635	-982.62616	845.59094	-301.88943
279	1.385	-717.90228	111.05888	-599.29272	-712.80121	124.00156	-541.80719	-516.90369	504.2709	-705.68286	-511.34491	494.05804	-610.04089	-611.17578	959.48456	-802.32184	-675.69452	1135.9089	-504.22592	-570.95642	873.09668	-93.633339	-606.84393	970.75311	-90.771309	-936.62	773.92981	-289.37207	-972.0083	864.57935	-262.07294
280	1.39	-717.18372	112.82538	-597.7981	-711.96051	123.47509	-543.96167	-517.29883	504.60504	-707.23596	-506.58118	494.32599	-613.62225	-619.10651	956.61298	-801.45117	-670.02936	1138.9072	-503.83878	-545.74835	886.76953	-94.326454	-578.28064	984.66718	-92.775826	-928.60455	787.12573	-256.86035	-962.23376	879.3056	-231.7339
281	1.395	-716.34766	113.89935	-596.30511	-709.33154	126.8523	-539.27777	-518.96637	504.7016	-707.72046	-503.08008	495.04099	-616.11127	-626.88776	953.61072	-800.11194	-665.34814	1141.6699	-504.00412	-521.53796	899.79681	-96.441292	-550.73425	997.41577	-96.726677	-919.90546	801.98242	-218.22351	-949.03815	896.13348	-194.7699
282	1.4	-715.91003	115.23878	-595.87836	-708.35602	127.28394	-540.44635	-520.04797	505.55695	-707.92926	-501.10858	496.02917	-617.0177	-634.70746	950.45172	-798.31079	-660.5788	1144.2742	-504.21887	-497.75577	911.87274	-100.84206	-524.23096	1008.7606	-102.61634	-908.25146	817.10059	-178.33484	-933.63531	912.79034	-156.46155
283	1.405	-715.62024	115.82017	-595.42523	-707.79346	127.79689	-540.06226	-520.75604	506.90628	-707.58063	-500.65143	497.16174	-616.46094	-642.30817	947.28833	-796.06616	-656.24298	1146.632	-504.43094	-475.64005	922.91449	-106.11255	-499.92697	1018.612	-109.96181	-893.96216	832.73834	-136.95258	-916.04608	929.13495	-116.55605
284	1.41	-715.57574	115.70927	-595.07269	-707.72534	128.74123	-537.99493	-521.49207	508.15631	-706.63733	-501.40524	498.35651	-614.79364	-649.5542	944.24164	-793.47919	-652.10034	1148.6836	-504.78656	-455.25134	932.51624	-112.28273	-477.41431	1027.186	-118.5897	-876.02026	846.71173	-89.204605	-894.93481	946.05908	-76.057251
285	1.415	-715.83295	115.55681	-595.46466	-708.2583	128.22787	-538.42224	-522.43591	509.1983	-704.87805	-503.29501	499.51709	-612.24139	-656.46301	941.36713	-790.50983	-647.84564	1150.5625	-505.12439	-436.80545	940.68353	-119.23589	-457.27826	1034.2687	-128.07323	-855.15643	862.78448	-46.077873	-870.66205	963.07043	-35.139278
286	1.42	-716.27679	114.89879	-595.66431	-708.87073	126.68267	-540.42133	-522.6759	510.39804	-703.14398	-505.96808	500.53961	-609.0827	-662.94843	938.73041	-787.26477	-644.573	1152.0468	-505.65207	-420.51578	947.38599	-126.62631	-439.73318	1039.849	-137.80452	-832.36169	887.20374	-11.848634	-842.17566	980.39221	5.7654343
287	1.425	-716.80286	113.58942	-595.64197	-710.0993	126.80457	-538.20746	-523.50928	511.46317	-700.37585	-509.37753	501.25284	-605.453	-668.8241	936.29321	-783.75146	-641.47705	1153.4626	-506.18832	-406.69012	952.58203	-134.26926	-424.42831	1044.1603	-147.89127	-801.78857	901.95001	33.434128	-809.95605	997.76422	46.558994
288	1.43	-717.61194	112.69714	-595.83917	-711.65924	124.15199	-539.86676	-524.00153	512.50043	-697.84863	-513.20227	501.64838	-601.61707	-673.90802	934.30688	-780.17474	-638.82855	1154.7427	-506.79718	-395.48773	956.57715	-141.88042	-412.07977	1047.217	-157.04431	-766.73633	916.47058	76.408562	-773.12592	1014.5913	85.69799
289	1.435	-718.48999	111.1464	-595.11865	-712.41888	123.0201	-539.64563	-524.90613	513.10602	-695.02026	-517.39691	501.70886	-597.78729	-678.23053	932.5838	-776.63464	-636.76215	1156.0186	-507.40826	-386.86734	959.49091	-148.76062	-402.28632	1049.2222	-165.20618	-727.20819	931.81653	117.40395	-731.87567	1032.0746	123.13796
290	1.44	-719.55432	110.08121	-594.12274	-713.276	122.14546	-538.43353	-525.88745	513.55127	-692.28442	-521.71661	501.53012	-594.05957	-681.62646	931.34607	-773.23822	-635.26385	1157.3806	-507.95734	-381.6236	961.7149	-154.37669	-395.16751	1050.298	-172.13654	-683.50421	947.38586	155.91263	-686.27423	1049.5984	158.63339
291	1.445	-720.78876	109.35262	-592.90228	-714.35248	121.43867	-535.6283	-527.04926	513.4201	-689.95929	-525.93872	501.2883	-590.6001	-684.25073	930.42413	-770.37231	-634.29138	1158.9515	-508.49438	-378.47552	963.58057	-159.59837	-390.53564	1050.6327	-177.67122	-635.97687	961.68542	189.43855	-636.59106	1065.8245	189.45331
292	1.45	-721.77716	108.30483	-590.68469	-714.96222	120.90242	-532.8714	-528.79913	512.95416	-687.57635	-529.86975	500.96713	-587.52551	-686.1134	929.90002	-767.89215	-633.72113	1160.7501	-508.78787	-378.64111	965.14478	-163.18163	-388.56866	1050.6388	-181.44577	-587.53125	977.63855	217.47647	-583.43988	1081.2009	215.90297
293	1.455	-722.98303	107.97446	-588.71008	-715.32013	119.63044	-531.13922	-531.07281	512.1134	-685.56073	-533.36182	500.65024	-584.79053	-687.55859	929.6897	-765.75531	-634.07965	1162.4865	-508.94742	-381.28323	966.60553	-165.49707	-388.98901	1050.7148	-183.4948	-532.73389	991.05164	240.70889	-527.14154	1094.0969	236.05447
294	1.46	-723.90247	107.3728	-586.04175	-715.63837	118.52541	-530.20703	-533.45563	511.0358	-683.95166	-536.06055	500.47266	-582.55542	-688.37543	929.75647	-763.77667	-634.85217	1164.2028	-508.87369	-387.51981	967.97083	-165.81421	-391.54535	1051.0579	-183.80153	-474.79239	1001.9207	256.78015	-469.69781	1103.8345	248.52167
295	1.465	-724.8446	107.35075	-584.08765	-715.76001	118.21461	-527.65948	-535.3335	510.99628	-682.82166	-538.02295	500.33212	-580.84412	-688.75061	930.08252	-761.71411	-635.94946	1165.9062	-508.36325	-393.59595	970.08386	-164.25482	-396.16257	1053.2909	-183.03162	-414.73346	1009.2214	263.75613	-413.26993	1110.4034	253.61728
296	1.47	-725.52875	107.26638	-581.87457	-716.23694	117.7712	-525.63068	-538.35602	510.36411	-681.2226	-539.1665	500.28729	-579.55353	-688.53381	930.5849	-759.44727	-636.85107	1167.9659	-507.61319	-398.79111	972.94299	-161.0338	-401.86377	1057.4918	-181.34143	-354.74582	1012.2399	260.46909	-359.3006	1112.9998	252.22531
297	1.475	-725.99591	107.29234	-580.06793	-716.45831	118.38264	-522.26733	-541.00391	510.61105	-679.87079	-539.68347	500.23978	-578.67511	-687.7948	931.28571	-756.79376	-638.48364	1169.8279	-505.72055	-401.7793	976.0611	-157.50145	-406.51382	1064.3011	-178.62544	-313.22668	1016.6088	253.49326	-319.80673	1109.3639	242.97043
